# xmcd
#
# Track frame offsets:
#	150
#	9645
#	19592
#	32413
#	44682
#	61688
#	71751
#	85278
#	96225
#	108964
#	120226
#	131792
#	145311
#	156416
#	168360
#	179146
#	189432
#	202559
#	213678
#	225496
#	235833
#	245998
#	256341
#	272101
#	285892
#	298520
#
# Disc length: 4123 seconds
#
# Revision: 0
# Processed by: cddbd v1.4b42PL1 Copyright (c) Steve Scherf et al.
# Submitted via: EasyCDDAExtractor 4.5.0.1
#
DISCID=7610191a
DTITLE=Patsy Cline - Patsy Cline - Country Legend
DYEAR=1900
DGENRE=
TTITLE0=Back In Baby's Arms
TTITLE1=Blue Moon Of Kentucky
TTITLE2=Blue
TTITLE3=Crazy
TTITLE4=Faded Love
TTITLE5=Have You Ever Been Lonely
TTITLE6=I Can't Help It If I'm Still In Love With You
TTITLE7=I Cried All The Way To The Altar
TTITLE8=I Fall To Pieces
TTITLE9=If You Got Leaving On Your Mind
TTITLE10=I'll Sail My Ship Alone
TTITLE11=I've Got Your Picture
TTITLE12=Love Letters
TTITLE13=Make My Brown Eyes Blue
TTITLE14=San Antonio Rose
TTITLE15=Seven Lonely Days
TTITLE16=Some Day You'll Want Me To Want You
TTITLE17=South Of The Border
TTITLE18=Sweet Dreams Of You
TTITLE19=Tennessee Waltz
TTITLE20=Tra La La La Triangle
TTITLE21=Who's Sorry Now
TTITLE22=Why Can't He Be You
TTITLE23=You Belong To Me
TTITLE24=You Made Me Love You (I Didn't Want To Do It)
TTITLE25=Your Cheating Heart
EXTD=
EXTT0=
EXTT1=
EXTT2=
EXTT3=
EXTT4=
EXTT5=
EXTT6=
EXTT7=
EXTT8=
EXTT9=
EXTT10=
EXTT11=
EXTT12=
EXTT13=
EXTT14=
EXTT15=
EXTT16=
EXTT17=
EXTT18=
EXTT19=
EXTT20=
EXTT21=
EXTT22=
EXTT23=
EXTT24=
EXTT25=
PLAYORDER=
